<?xml version="1.0" encoding="UTF-8"?>
<svg id="Warstwa_1" data-name="Warstwa 1" xmlns="http://www.w3.org/2000/svg" viewBox="0 0 295 105">
  <rect x="2.63" y="101.08" width="277.44" height="2.02"/>
  <rect x="2.63" y="95.03" width="277.44" height="4.04"/>
  <path d="m2.63,86.96v6.05h277.44v-6.05H2.63Z"/>
  <path d="m36.64,45.93c-.13-.28-.28-.52-.4-.71-.29-.29-.79-.7-1.5-1.01-.86-.37-1.64-.4-2.07-.38h-2.44l-1.88,9.5c.58.05,1.4.08,2.38,0,1.88-.16,3.07-.26,4.18-1.11,0,0,2.15-1.64,2.09-4.79,0-.27-.05-.53-.05-.53-.02-.1-.08-.49-.3-.98Zm-1.76,2.22c-.27,1.21-.71,2.08-1.26,2.53-.36.3-1.15.66-2.84.66l1.07-5.5h.81c.62,0,1.43.08,1.89.48.21.19.43.46.43,1.12,0,.06-.01.27-.1.71Z"/>
  <path d="m27.08,72.31l3.52,9.96h20.57l.77-4.14-2.32-5.87c1.02,1.67,2.25,3.18,3.69,4.49,2.25,2.07,4.98,3.7,8.12,4.84,3.11,1.13,6.62,1.7,10.44,1.7,4.27,0,8.3-.63,11.95-1.87,3.64-1.24,6.97-3.04,9.85-5.33,1.88-1.49,3.57-3.21,5.04-5.14,1.12,2.24,2.55,4.22,4.3,5.93,2.16,2.1,4.81,3.75,7.86,4.9,3.02,1.14,6.42,1.71,10.09,1.71,4.09,0,7.91-.56,11.37-1.68,3.29-1.05,6.29-2.56,8.92-4.5l-.14.69-.92,4.61h23.01l2.76-13.88,4.43,13.88h21.93l.67-3.65s.05.04.07.06c3.63,2.83,8.7,4.27,15.08,4.27,4.35,0,8.27-.59,11.71-1.74l-.05.25-.12.66h23.22l2.74-6.19h9.77l.14,6.19h21.69l.73-3.9-6.98-50.5h-23.67l-10.2,18.94h0s-.19.37-.19.37l.2-1.43c.16-1.1.24-2.16.24-3.17,0-2.91-.58-5.48-1.73-7.66-.22-.42-.46-.82-.74-1.21-.78-1.21-1.78-2.28-2.98-3.21-3.47-2.72-8.41-4.1-14.71-4.1-3.21,0-6.27.37-9.07,1.11-2.06.54-3.97,1.28-5.69,2.21l.32-1.7h-23.76l-6.99,10.31,2.06-10.31h-23.01l-1.49,7.46c-.53-.71-1.13-1.38-1.75-2-2.19-2.17-4.85-3.89-7.96-5.09-3.07-1.19-6.57-1.79-10.41-1.79-4.03,0-7.9.6-11.51,1.79-3.62,1.2-6.89,2.97-9.75,5.27-1.89,1.52-3.6,3.27-5.1,5.23-1.12-2.23-2.61-4.2-4.41-5.9-2.24-2.1-4.98-3.74-8.14-4.89-3.15-1.13-6.66-1.7-10.47-1.7-4.24,0-8.25.61-11.9,1.83-3.69,1.22-7.03,3-9.92,5.3-1.27,1.02-2.46,2.14-3.56,3.37-1.01-1.89-2.38-3.53-4.12-4.87-1.82-1.43-4.04-2.52-6.6-3.26-2.5-.72-5.33-1.09-8.37-1.09H13.45L2.57,82.27h22.51l2-9.96ZM248.51,30.06h20.73l6.71,48.46-.37,1.94h-18.07l-.15-6.19h-13.03l-2.73,6.19h-19.52l.37-1.94.15-.3,1.92-3.56h0s6.26-11.64,6.26-11.64l1.92-3.55,1.44-2.67.02-.07,14.35-26.67Zm-11.74,17.59l-.1.2-3.57,6.61c-.06-.12-.13-.23-.2-.34-.63-1.04-1.4-1.99-2.33-2.85-1.57-1.44-3.53-2.58-5.87-3.42-.18-.07-.37-.14-.56-.2h12.63Zm-28.12-18.02c2.65-.69,5.49-1.04,8.56-1.04,5.87,0,10.36,1.22,13.48,3.67,3.12,2.45,4.68,5.95,4.68,10.51,0,.92-.07,1.87-.23,2.88h-17.06c0-1.01-.29-1.81-.89-2.41-.61-.6-1.38-.9-2.35-.9s-1.72.21-2.3.61c-.58.41-.86,1.07-.86,1.98s.55,1.65,1.65,2.2c1.11.55,2.88,1,5.34,1.33,4.59.63,8.12,2.05,10.53,4.28,1.23,1.12,2.13,2.43,2.75,3.9l-1.35,2.48c-.05-.24-.11-.48-.17-.72,0-.01,0-.02-.01-.04-.06-.22-.13-.43-.21-.64-.08-.22-.17-.44-.27-.66-.07-.15-.14-.29-.21-.43-.15-.28-.32-.56-.5-.82-.09-.13-.19-.26-.29-.39-.12-.16-.25-.32-.39-.48-.07-.09-.15-.17-.23-.25-.15-.16-.31-.32-.47-.47-2.11-1.94-5.29-3.21-9.47-3.78-2.69-.37-4.63-.87-5.95-1.52-2.4-1.2-2.76-3.01-2.76-3.99s.23-1.76.56-2.34c.17-.3.36-.55.56-.76.2-.21.4-.37.59-.51.92-.65,2.08-.98,3.46-.98,1.48,0,2.78.51,3.75,1.49.13.13.25.26.37.4.23.28.42.59.58.92.09.16.16.33.22.5h13.57c.02-.3.03-.59.03-.88,0-3.95-1.28-6.87-3.92-8.94-2.74-2.15-6.86-3.24-12.23-3.24-2.88,0-5.59.33-8.05.98-2.41.63-4.55,1.57-6.34,2.78-.89.6-1.7,1.26-2.44,1.98-.55.54-1.06,1.11-1.52,1.72-.16.2-.31.4-.45.61-.42.61-.8,1.26-1.13,1.95-.21.45-.41.93-.58,1.41-.26.74-.47,1.5-.62,2.29-.14.68-.24,1.33-.31,1.97-.07.63-.1,1.24-.1,1.82,0,3.77,1.26,8.95,12.16,10.47,2.77.37,4.71.83,5.94,1.4,1.33.61,2.02,1.46,2.37,2.26.08.17.14.35.19.51.11.43.15.82.15,1.13,0,1.52-.59,2.8-1.71,3.71-1.01.82-2.34,1.24-3.96,1.24-1.77,0-3.16-.51-4.11-1.53h-.01c-.26-.28-.48-.58-.66-.91-.18-.34-.33-.7-.43-1.09h-14.15c-.06.56-.1,1.07-.1,1.53,0,3.9,1.36,6.86,4.16,9.04,2.92,2.28,7.16,3.43,12.63,3.43.39,0,.78-.01,1.16-.02.76-.02,1.51-.06,2.24-.12.6-.05,1.18-.11,1.75-.19.04,0,.07-.01.1-.02.28-.03.54-.08.81-.12.45-.07.89-.15,1.32-.24.28-.06.57-.12.85-.19.28-.06.55-.13.81-.21.02,0,.05-.01.07-.02.23-.06.46-.13.68-.2.28-.08.56-.17.83-.27.27-.09.54-.19.81-.29.27-.11.53-.21.79-.32s.52-.23.77-.35h.01-.01s-.59,1.11-.59,1.11l-.27,1.43c-3.47,1.35-7.52,2.02-12.13,2.02-5.94,0-10.56-1.28-13.85-3.85-1.05-.82-1.95-1.74-2.66-2.77l-2.12-5.61c-.11-.72-.15-1.46-.15-2.24,0-1.01.12-2.18.35-3.53h17.72c-.14,2.36.99,3.53,3.39,3.53,1.14,0,2.05-.26,2.69-.79.66-.53.98-1.25.98-2.16s-.53-1.61-1.55-2.09c-1.04-.48-2.82-.89-5.36-1.22-9.27-1.3-13.9-5.45-13.9-12.46,0-1.3.15-2.69.43-4.17.27-1.34.65-2.6,1.2-3.77,0-.01,0-.01,0-.02h0c.39-.93.88-1.8,1.45-2.62.94-1.36,2.06-2.58,3.37-3.66h.01c.49-.42,1-.8,1.55-1.17,2-1.34,4.31-2.36,6.95-3.06Zm7.43,16.02v.31c-.93-.22-1.5-.44-1.85-.62-.22-.11-.35-.2-.43-.27-.1-.08-.12-.13-.12-.14,0-.22.03-.34.02-.34.22-.16.63-.25,1.14-.25.55,0,.78.16.92.31.05.04.13.12.19.27h0c.07.16.13.39.13.73Zm-22.57,9.51c.06.09.11.17.16.25,1.51,2.37,4.04,4.49,8.17,5.88h-13.79l-.3,1.65c-.07.36-.12.71-.17,1.04l-3.15-8.31,7.34-9.55c-.07.68-.09,1.35-.09,1.98,0,2.26.45,4.77,1.83,7.06Zm15.92,8.25l.02-.53c1.45.27,2.24.52,2.65.71.29.14.39.26.39.28,0,.03,0,.05-.01.08-.02.35-.15.46-.23.53-.27.22-.77.34-1.43.34s-1.05-.12-1.18-.25c-.01,0-.02,0-.03-.02-.11-.12-.22-.48-.18-1.14Zm-59.54-19.11l.71-3.55h0s2.1-10.54,2.1-10.54h18.94c-1.17,5.88-2.35,11.76-3.52,17.64.15-.02.3-.03.45-.04,3.83-5.87,7.66-11.74,11.5-17.6h20.3l-.2,1.13c-.52.34-.99.72-1.46,1.11-1.38,1.16-2.58,2.48-3.58,3.93-.61.87-1.12,1.79-1.56,2.76-.4.85-.74,1.74-.99,2.67l-10.43,13.53,8.86,23.33-.36,1.94h-18.79l-6.34-19.87-3.95,19.87h-18.94l.97-4.85.79-3.96,1.1-5.5.91-4.57.41-2,.39-2,.51-2.56.41-1.99.39-2.01.35-1.73v-.05l1.03-5.09Zm-15.15,7.66c-.09-2.02-.78-3.6-2.05-4.76-1.27-1.15-2.96-1.73-5.07-1.73-1.69,0-3.2.37-4.54,1.08-1.35.72-2.5,1.69-3.46,2.89-.96,1.2-1.69,2.55-2.19,4.06-.51,1.51-.76,3.04-.76,4.57,0,2.26.61,4.04,1.84,5.33,1.22,1.3,2.94,1.95,5.15,1.95s4.27-.6,5.9-1.8c1.63-1.2,2.93-2.88,3.89-5.04h11.56l-.25,1.22-.09.51h-9.93c-1.04,1.92-2.36,3.48-3.95,4.65-1.97,1.45-4.36,2.19-7.09,2.19s-5-.87-6.6-2.57c-1.59-1.68-2.39-3.93-2.39-6.7,0-1.75.3-3.5.87-5.21.57-1.73,1.43-3.31,2.53-4.68,1.13-1.41,2.5-2.55,4.08-3.4,1.63-.87,3.46-1.32,5.48-1.32,2.6,0,4.77.76,6.41,2.25,1.24,1.12,2.06,2.54,2.44,4.23h10.25l-.29,1.49-.11.52-.06.27h-11.57Zm11.18,1.99l-.24,1.22-.23,1.07-.05.27h-13.25l-.53,1.18c-.81,1.83-1.91,3.26-3.24,4.25-1.3.95-2.84,1.41-4.72,1.41-1.65,0-2.86-.43-3.7-1.32-.87-.92-1.29-2.21-1.29-3.95,0-1.32.22-2.64.65-3.94.43-1.29,1.06-2.45,1.87-3.46.79-.99,1.72-1.77,2.83-2.36,1.06-.57,2.24-.85,3.6-.85,1.61,0,2.83.4,3.73,1.21.87.79,1.33,1.89,1.4,3.37l.09,1.9h13.08Zm-43.25-10.68c.43-.73.89-1.43,1.37-2.11,1.56-2.19,3.35-4.11,5.41-5.75,2.69-2.16,5.73-3.8,9.13-4.93,3.42-1.13,7.04-1.69,10.88-1.69,3.61,0,6.83.55,9.68,1.65,2.87,1.11,5.29,2.66,7.28,4.65,1,1,1.87,2.1,2.6,3.3l-.51,2.62-.11.48c-.83-1.9-1.97-3.57-3.39-4.99-1.8-1.78-4-3.19-6.58-4.19-2.61-1.01-5.63-1.52-8.97-1.52-3.6,0-7.06.53-10.25,1.59-3.15,1.05-6.02,2.59-8.51,4.59-2.27,1.82-4.25,4.04-5.87,6.6-.16.24-.32.5-.47.75-.36.6-.69,1.22-1,1.86t0,0c-.66,1.32-1.22,2.72-1.67,4.2-.38,1.22-.69,2.5-.93,3.83-.18.94-.32,1.88-.42,2.81-.08.8-.11,1.61-.11,2.39v.02h0v.02h0s-.02.03,0,.04h0c-.02.09-.02.17-.02.25,0,1.49.13,2.92.39,4.28.17,1.01.42,1.98.76,2.9.09.3.21.6.33.89.96,2.39,2.36,4.48,4.12,6.19,1.76,1.72,3.93,3.07,6.46,4.03,2.57.96,5.49,1.45,8.69,1.45,3.67,0,7.09-.5,10.16-1.49,3.05-.97,5.82-2.41,8.21-4.25,1.16-.88,2.23-1.87,3.22-2.96l-.04.15h0s-.65,3.32-.65,3.32c-.42.38-.86.74-1.31,1.08-2.6,1.99-5.54,3.51-8.82,4.57-3.29,1.05-6.87,1.58-10.77,1.58-3.45,0-6.58-.53-9.39-1.58-2.81-1.06-5.19-2.54-7.17-4.47-1.83-1.79-3.28-3.92-4.34-6.37-.08-.16-.16-.33-.23-.5-.25-.61-.45-1.23-.64-1.86-.3-.96-.51-1.96-.67-2.99h0c-.2-1.28-.31-2.59-.31-3.97,0-.96.05-1.93.15-2.92.02-.19.03-.38.07-.58-.01,0,0-.02,0-.03.08-.76.2-1.53.34-2.3,0-.03,0-.05.02-.08.52-2.86,1.35-5.5,2.47-7.92.42-.9.88-1.78,1.38-2.62.01-.01.01-.02.03-.03Zm-47.09-4.15c1.18-1.41,2.5-2.69,3.93-3.84,2.72-2.16,5.82-3.81,9.3-4.96,3.48-1.16,7.23-1.73,11.27-1.73,3.6,0,6.86.53,9.79,1.58,2.93,1.06,5.4,2.55,7.45,4.47,1.88,1.78,3.38,3.87,4.45,6.29-.29.43-.57.88-.84,1.34-.16.26-.3.52-.45.78-.09-.26-.19-.52-.29-.77-.99-2.39-2.43-4.47-4.24-6.19-1.83-1.72-4.12-3.08-6.76-4.04-2.7-.97-5.76-1.46-9.11-1.46-3.82,0-7.38.55-10.64,1.63-3.24,1.07-6.17,2.63-8.68,4.63-.22.18-.45.37-.68.57-.14.12-.31.27-.45.4,0,0-.02.01-.03.03-.05.04-.11.09-.16.14v.02c-.24.19-.44.39-.64.59-.22.2-.41.4-.61.62-.2.21-.4.42-.59.64-.21.21-.4.44-.58.66-.02.02-.04.05-.06.07-.12.13-.22.26-.32.39-.15.18-.3.37-.44.56h0c-.62.83-1.2,1.69-1.74,2.59-.01.02-.01.03-.02.05-1.7,2.89-2.93,6.2-3.68,9.93-.2.89-.34,1.79-.4,2.67,0,.06-.02.13-.02.19-.02.4-.05.8-.07,1.2-.01.47-.02.93-.02,1.38,0,.17,0,.33,0,.49,0,.33.01.66.04.98.02.45.06.9.12,1.33.02.23.04.47.09.7.04.33.1.64.17.96.06.32.13.64.21.95.03.16.06.31.12.46.04.15.07.3.13.46.18.61.37,1.2.62,1.77.98,2.4,2.42,4.47,4.25,6.16,1.86,1.71,4.13,3.06,6.79,4.02,2.66.97,5.71,1.46,9.07,1.46,3.83,0,7.43-.56,10.65-1.65,3.23-1.1,6.13-2.67,8.66-4.68.33-.27.66-.55.99-.83.48-.44.97-.9,1.43-1.37.44-.45.85-.92,1.26-1.4.15-.19.32-.38.47-.57.1-.12.18-.24.28-.36.16-.22.33-.44.49-.66.19-.26.38-.53.55-.8.12-.19.24-.37.36-.56.23.84.49,1.65.79,2.44-1.54,2.16-3.34,4.05-5.38,5.67-2.72,2.16-5.79,3.83-9.25,5.01-3.46,1.17-7.22,1.76-11.3,1.76-3.61,0-6.86-.53-9.76-1.58-2.91-1.06-5.4-2.53-7.46-4.43-2.05-1.89-3.64-4.19-4.75-6.87-.86-2.11-1.39-4.38-1.57-6.81-.06-.67-.08-1.35-.08-2.05,0-.13,0-.27,0-.4,0-.83.04-1.67.1-2.52.01-.14.02-.29.03-.43.09-.84.23-1.7.44-2.56.73-3.68,1.93-7.01,3.61-9.98.08-.16.18-.33.27-.49.43-.73.89-1.43,1.36-2.1.48-.68.98-1.33,1.51-1.95Zm31.61,13.01c0,1.81-.32,3.61-.95,5.36s-1.54,3.34-2.69,4.71c-1.17,1.4-2.6,2.53-4.22,3.37-1.66.87-3.56,1.31-5.59,1.31-2.78,0-4.99-.87-6.6-2.57-1.58-1.68-2.38-3.88-2.38-6.56,0-1.81.31-3.61.94-5.36s1.54-3.33,2.69-4.71c1.18-1.4,2.59-2.53,4.22-3.37,1.66-.87,3.54-1.31,5.59-1.31,2.76,0,4.99.87,6.61,2.58,1.58,1.67,2.38,3.88,2.38,6.55ZM5.01,80.27L15.08,29.87h20.53c2.88,0,5.47.34,7.81,1.01,2.33.67,4.31,1.64,5.94,2.91,1.64,1.28,2.89,2.83,3.78,4.65.05.11.1.22.15.33-.49.63-.96,1.27-1.4,1.94-.14-.48-.32-.95-.55-1.39-.76-1.57-1.82-2.86-3.21-3.95-1.43-1.11-3.19-1.97-5.26-2.57-2.14-.62-4.58-.93-7.26-.93h-18.88l-9.28,46.4h14.35c1.1-5.63,2.21-11.27,3.32-16.91h.06c.74-.02,1.49-.05,2.24-.07,2.01,5.66,4.01,11.32,6.01,16.98h14.27l-6.94-17.53,1.94-.71c1.35-.49,2.54-1.1,3.57-1.85-.01.46-.02.92-.02,1.37,0,.34,0,.67,0,1-.87.53-1.83.98-2.87,1.36l6.48,16.42-.36,1.94h-17.5l-5.47-15.48-3.1,15.48H5.01Zm33.89-32.76c0,.43-.06.93-.2,1.6-.47,2.12-1.37,3.71-2.62,4.74-1.29,1.05-3.07,1.56-5.44,1.56h-4.81l2.67-13.5h4.08c1.88,0,3.41.49,4.53,1.46,1.16,1.03,1.79,2.46,1.79,4.14Z"/>
  <path d="m73.51,46.08c-1.39.72-2.59,1.69-3.6,2.89-1,1.2-1.78,2.56-2.34,4.1-.55,1.54-.82,3.09-.82,4.68,0,2.16.61,3.89,1.83,5.18,1.23,1.3,2.94,1.95,5.15,1.95,1.73,0,3.29-.36,4.68-1.08,1.39-.72,2.59-1.68,3.6-2.88,1.01-1.2,1.79-2.57,2.34-4.11.55-1.53.83-3.09.83-4.68,0-2.16-.61-3.89-1.84-5.18-1.22-1.3-2.94-1.95-5.15-1.95-1.72,0-3.28.37-4.68,1.08Zm9.67,6.05c0,1.35-.24,2.69-.71,4.01-.47,1.3-1.14,2.48-1.99,3.49-.83.99-1.84,1.79-2.99,2.39-1.11.58-2.34.86-3.76.86-1.65,0-2.86-.43-3.69-1.32-.87-.92-1.29-2.17-1.29-3.81,0-1.35.23-2.69.71-4,.47-1.31,1.13-2.48,1.99-3.5.84-1,1.82-1.79,2.98-2.39,1.12-.58,2.35-.86,3.76-.86,1.65,0,2.86.44,3.7,1.32.87.92,1.29,2.17,1.29,3.81Z"/>
  <path d="m147.4,66.93h-.01s-1.13,5.69-1.13,5.69l-1.2,5.99h14.86c.01-.06.02-.11.03-.17.01-.05.02-.11.04-.19.03-.16.06-.32.09-.48.03-.14.06-.29.09-.43.09-.46.18-.91.27-1.37.04-.22.08-.43.13-.65.04-.23.09-.47.14-.7.1-.54.21-1.07.32-1.61.93-4.82,1.89-9.65,2.84-14.47.97-.03,1.95-.06,2.92-.09,1.11,3.32,2.21,6.67,3.3,10.05,1.1,3.39,2.17,6.76,3.23,10.11h15.53l-8.97-23.61,17.56-22.79h-16.32c-3.88,5.65-7.77,11.3-11.65,16.95l-3.75-.1c.61-2.83,1.21-5.68,1.8-8.56.57-2.78,1.13-5.54,1.68-8.29h-14.86l-2.4,11.99-1.07,5.36h0s-.72,3.62-.72,3.62l-.4,1.99-.51,2.56-.4,2-1.44,7.2Z"/>
  <path d="m255.81,48.29l-6.48,14.04h8.06l-1.15-14.04h-.43Zm-3.35,12.04l2.35-5.09.41,5.09h-2.76Z"/>
  <path d="m226.08,75.98h-.01s-1.33,2.48-1.33,2.48h15.55l2.74-6.19h16.29l.14,6.19h14.45l-6.41-46.4h-17.8l-14.87,27.64-.08.15-2.01,3.74-6.66,12.39Zm28.42-30.06h3.55l1.49,18.04h-13.37l8.33-18.04Z"/>
  <polygon points="279.35 14.36 279.41 9.96 275.88 12.59 271.72 11.18 273.13 15.34 270.5 18.87 274.9 18.81 277.44 22.4 278.74 18.2 282.94 16.89 279.35 14.36"/>
  <path d="m283.38,12.3l.13-10.4-8.33,6.22-9.85-3.34,3.34,9.85-6.22,8.34,10.4-.13,6,8.49,3.09-9.93,9.93-3.09-8.49-6.01Zm-3.04,7.5l-2.2,7.06-4.27-6.04-7.4.1,4.43-5.93-2.38-7.01,7.01,2.38,5.93-4.43-.09,7.4,6.04,4.27-7.07,2.2Z"/>
  <polygon points="11.4 25.89 17.28 25.82 17.26 23.82 9.79 23.9 8.28 30.68 10.23 31.12 11.4 25.89"/>
</svg>